<?xml version="1.0" standalone="no"?>
 <!DOCTYPE svg PUBLIC "-//W3C//DTD SVG 1.1//EN" 
 "http://www.w3.org/Graphics/SVG/1.1/DTD/svg11.dtd"> 
<svg xmlns="http://www.w3.org/2000/svg" version="1.1" 
    width="29.7002cm" height="21.0007cm" viewBox="0 0 116930 82680 ">
<title>SVG Picture created as geiger_mounts-Dwgs.User.svg date 2017/07/24 20:45:32 </title>
  <desc>Picture generated by PCBNEW </desc>
<g style="fill:#000000; fill-opacity:1;stroke:#000000; stroke-opacity:1;
stroke-linecap:round; stroke-linejoin:round; "
 transform="translate(0 0) scale(1 1)">
</g>
<g style="fill:#000000; fill-opacity:0.0; 
stroke:#000000; stroke-width:-0.000393701; stroke-opacity:1; 
stroke-linecap:round; stroke-linejoin:round;">
</g>
<g style="fill:#000000; fill-opacity:0.0; 
stroke:#000000; stroke-width:39.3701; stroke-opacity:1; 
stroke-linecap:round; stroke-linejoin:round;">
</g>
<g style="fill:#000000; fill-opacity:0.0; 
stroke:#000000; stroke-width:59.0551; stroke-opacity:1; 
stroke-linecap:round; stroke-linejoin:round;">
<rect x="69685.9" y="65357.2" width="42519.7" height="12598.4" rx="0" />
</g>
<g style="fill:#000000; fill-opacity:0.0; 
stroke:#000000; stroke-width:39.3701; stroke-opacity:1; 
stroke-linecap:round; stroke-linejoin:round;">
</g>
<g style="fill:#000000; fill-opacity:0.0; 
stroke:#000000; stroke-width:59.0551; stroke-opacity:1; 
stroke-linecap:round; stroke-linejoin:round;">
<rect x="3937.01" y="3937.01" width="109056" height="74806" rx="0" />
</g>
<g style="fill:#000000; fill-opacity:0.0; 
stroke:#000000; stroke-width:39.3701; stroke-opacity:1; 
stroke-linecap:round; stroke-linejoin:round;">
</g>
<g style="fill:#000000; fill-opacity:0.0; 
stroke:#000000; stroke-width:59.0551; stroke-opacity:1; 
stroke-linecap:round; stroke-linejoin:round;">
<rect x="4724.41" y="4724.41" width="107481" height="73231.2" rx="0" />
</g>
<g style="fill:#000000; fill-opacity:0.0; 
stroke:#000000; stroke-width:39.3701; stroke-opacity:1; 
stroke-linecap:round; stroke-linejoin:round;">
</g>
<g style="fill:#000000; fill-opacity:0.0; 
stroke:#000000; stroke-width:59.0551; stroke-opacity:1; 
stroke-linecap:round; stroke-linejoin:round;">
<path d="M23622 4724
L23622 3937
" />
</g>
<g style="fill:#000000; fill-opacity:0.0; 
stroke:#000000; stroke-width:39.3701; stroke-opacity:1; 
stroke-linecap:round; stroke-linejoin:round;">
</g>
<g style="fill:#000000; fill-opacity:0.0; 
stroke:#000000; stroke-width:59.0551; stroke-opacity:1; 
stroke-linecap:round; stroke-linejoin:round;">
<path d="M43307 4724
L43307 3937
" />
</g>
<g style="fill:#000000; fill-opacity:0.0; 
stroke:#000000; stroke-width:39.3701; stroke-opacity:1; 
stroke-linecap:round; stroke-linejoin:round;">
</g>
<g style="fill:#000000; fill-opacity:0.0; 
stroke:#000000; stroke-width:59.0551; stroke-opacity:1; 
stroke-linecap:round; stroke-linejoin:round;">
<path d="M62992 4724
L62992 3937
" />
</g>
<g style="fill:#000000; fill-opacity:0.0; 
stroke:#000000; stroke-width:39.3701; stroke-opacity:1; 
stroke-linecap:round; stroke-linejoin:round;">
</g>
<g style="fill:#000000; fill-opacity:0.0; 
stroke:#000000; stroke-width:59.0551; stroke-opacity:1; 
stroke-linecap:round; stroke-linejoin:round;">
<path d="M82677 4724
L82677 3937
" />
</g>
<g style="fill:#000000; fill-opacity:0.0; 
stroke:#000000; stroke-width:39.3701; stroke-opacity:1; 
stroke-linecap:round; stroke-linejoin:round;">
</g>
<g style="fill:#000000; fill-opacity:0.0; 
stroke:#000000; stroke-width:59.0551; stroke-opacity:1; 
stroke-linecap:round; stroke-linejoin:round;">
<path d="M102362 4724
L102362 3937
" />
</g>
<g style="fill:#000000; fill-opacity:0.0; 
stroke:#000000; stroke-width:39.3701; stroke-opacity:1; 
stroke-linecap:round; stroke-linejoin:round;">
</g>
<g style="fill:#000000; fill-opacity:0.0; 
stroke:#000000; stroke-width:59.0551; stroke-opacity:1; 
stroke-linecap:round; stroke-linejoin:round;">
<path d="M14199 4562
L13906 4562
" />
<path d="M14052 4562
L14052 4050
L14004 4123
L13955 4172
L13906 4196
" />
</g>
<g style="fill:#000000; fill-opacity:0.0; 
stroke:#000000; stroke-width:39.3701; stroke-opacity:1; 
stroke-linecap:round; stroke-linejoin:round;">
</g>
<g style="fill:#000000; fill-opacity:0.0; 
stroke:#000000; stroke-width:59.0551; stroke-opacity:1; 
stroke-linecap:round; stroke-linejoin:round;">
<path d="M33591 4099
L33615 4074
L33664 4050
L33786 4050
L33835 4074
L33859 4099
L33884 4147
L33884 4196
L33859 4269
L33567 4562
L33884 4562
" />
</g>
<g style="fill:#000000; fill-opacity:0.0; 
stroke:#000000; stroke-width:39.3701; stroke-opacity:1; 
stroke-linecap:round; stroke-linejoin:round;">
</g>
<g style="fill:#000000; fill-opacity:0.0; 
stroke:#000000; stroke-width:59.0551; stroke-opacity:1; 
stroke-linecap:round; stroke-linejoin:round;">
<path d="M53252 4050
L53569 4050
L53398 4245
L53471 4245
L53520 4269
L53544 4294
L53569 4342
L53569 4464
L53544 4513
L53520 4537
L53471 4562
L53325 4562
L53276 4537
L53252 4513
" />
</g>
<g style="fill:#000000; fill-opacity:0.0; 
stroke:#000000; stroke-width:39.3701; stroke-opacity:1; 
stroke-linecap:round; stroke-linejoin:round;">
</g>
<g style="fill:#000000; fill-opacity:0.0; 
stroke:#000000; stroke-width:59.0551; stroke-opacity:1; 
stroke-linecap:round; stroke-linejoin:round;">
<path d="M73205 4221
L73205 4562
" />
<path d="M73083 4026
L72961 4391
L73278 4391
" />
</g>
<g style="fill:#000000; fill-opacity:0.0; 
stroke:#000000; stroke-width:39.3701; stroke-opacity:1; 
stroke-linecap:round; stroke-linejoin:round;">
</g>
<g style="fill:#000000; fill-opacity:0.0; 
stroke:#000000; stroke-width:59.0551; stroke-opacity:1; 
stroke-linecap:round; stroke-linejoin:round;">
<path d="M92914 4050
L92671 4050
L92646 4294
L92671 4269
L92719 4245
L92841 4245
L92890 4269
L92914 4294
L92939 4342
L92939 4464
L92914 4513
L92890 4537
L92841 4562
L92719 4562
L92671 4537
L92646 4513
" />
</g>
<g style="fill:#000000; fill-opacity:0.0; 
stroke:#000000; stroke-width:39.3701; stroke-opacity:1; 
stroke-linecap:round; stroke-linejoin:round;">
</g>
<g style="fill:#000000; fill-opacity:0.0; 
stroke:#000000; stroke-width:59.0551; stroke-opacity:1; 
stroke-linecap:round; stroke-linejoin:round;">
<path d="M112575 4050
L112477 4050
L112429 4074
L112404 4099
L112356 4172
L112331 4269
L112331 4464
L112356 4513
L112380 4537
L112429 4562
L112526 4562
L112575 4537
L112599 4513
L112624 4464
L112624 4342
L112599 4294
L112575 4269
L112526 4245
L112429 4245
L112380 4269
L112356 4294
L112331 4342
" />
</g>
<g style="fill:#000000; fill-opacity:0.0; 
stroke:#000000; stroke-width:39.3701; stroke-opacity:1; 
stroke-linecap:round; stroke-linejoin:round;">
</g>
<g style="fill:#000000; fill-opacity:0.0; 
stroke:#000000; stroke-width:59.0551; stroke-opacity:1; 
stroke-linecap:round; stroke-linejoin:round;">
<path d="M23622 77955
L23622 78742
" />
</g>
<g style="fill:#000000; fill-opacity:0.0; 
stroke:#000000; stroke-width:39.3701; stroke-opacity:1; 
stroke-linecap:round; stroke-linejoin:round;">
</g>
<g style="fill:#000000; fill-opacity:0.0; 
stroke:#000000; stroke-width:59.0551; stroke-opacity:1; 
stroke-linecap:round; stroke-linejoin:round;">
<path d="M43307 77955
L43307 78742
" />
</g>
<g style="fill:#000000; fill-opacity:0.0; 
stroke:#000000; stroke-width:39.3701; stroke-opacity:1; 
stroke-linecap:round; stroke-linejoin:round;">
</g>
<g style="fill:#000000; fill-opacity:0.0; 
stroke:#000000; stroke-width:59.0551; stroke-opacity:1; 
stroke-linecap:round; stroke-linejoin:round;">
<path d="M62992 77955
L62992 78742
" />
</g>
<g style="fill:#000000; fill-opacity:0.0; 
stroke:#000000; stroke-width:39.3701; stroke-opacity:1; 
stroke-linecap:round; stroke-linejoin:round;">
</g>
<g style="fill:#000000; fill-opacity:0.0; 
stroke:#000000; stroke-width:59.0551; stroke-opacity:1; 
stroke-linecap:round; stroke-linejoin:round;">
<path d="M82677 77955
L82677 78742
" />
</g>
<g style="fill:#000000; fill-opacity:0.0; 
stroke:#000000; stroke-width:39.3701; stroke-opacity:1; 
stroke-linecap:round; stroke-linejoin:round;">
</g>
<g style="fill:#000000; fill-opacity:0.0; 
stroke:#000000; stroke-width:59.0551; stroke-opacity:1; 
stroke-linecap:round; stroke-linejoin:round;">
<path d="M102362 77955
L102362 78742
" />
</g>
<g style="fill:#000000; fill-opacity:0.0; 
stroke:#000000; stroke-width:39.3701; stroke-opacity:1; 
stroke-linecap:round; stroke-linejoin:round;">
</g>
<g style="fill:#000000; fill-opacity:0.0; 
stroke:#000000; stroke-width:59.0551; stroke-opacity:1; 
stroke-linecap:round; stroke-linejoin:round;">
<path d="M14199 78580
L13906 78580
" />
<path d="M14052 78580
L14052 78069
L14004 78142
L13955 78190
L13906 78215
" />
</g>
<g style="fill:#000000; fill-opacity:0.0; 
stroke:#000000; stroke-width:39.3701; stroke-opacity:1; 
stroke-linecap:round; stroke-linejoin:round;">
</g>
<g style="fill:#000000; fill-opacity:0.0; 
stroke:#000000; stroke-width:59.0551; stroke-opacity:1; 
stroke-linecap:round; stroke-linejoin:round;">
<path d="M33591 78117
L33615 78093
L33664 78069
L33786 78069
L33835 78093
L33859 78117
L33884 78166
L33884 78215
L33859 78288
L33567 78580
L33884 78580
" />
</g>
<g style="fill:#000000; fill-opacity:0.0; 
stroke:#000000; stroke-width:39.3701; stroke-opacity:1; 
stroke-linecap:round; stroke-linejoin:round;">
</g>
<g style="fill:#000000; fill-opacity:0.0; 
stroke:#000000; stroke-width:59.0551; stroke-opacity:1; 
stroke-linecap:round; stroke-linejoin:round;">
<path d="M53252 78069
L53569 78069
L53398 78263
L53471 78263
L53520 78288
L53544 78312
L53569 78361
L53569 78483
L53544 78532
L53520 78556
L53471 78580
L53325 78580
L53276 78556
L53252 78532
" />
</g>
<g style="fill:#000000; fill-opacity:0.0; 
stroke:#000000; stroke-width:39.3701; stroke-opacity:1; 
stroke-linecap:round; stroke-linejoin:round;">
</g>
<g style="fill:#000000; fill-opacity:0.0; 
stroke:#000000; stroke-width:59.0551; stroke-opacity:1; 
stroke-linecap:round; stroke-linejoin:round;">
<path d="M73205 78239
L73205 78580
" />
<path d="M73083 78044
L72961 78410
L73278 78410
" />
</g>
<g style="fill:#000000; fill-opacity:0.0; 
stroke:#000000; stroke-width:39.3701; stroke-opacity:1; 
stroke-linecap:round; stroke-linejoin:round;">
</g>
<g style="fill:#000000; fill-opacity:0.0; 
stroke:#000000; stroke-width:59.0551; stroke-opacity:1; 
stroke-linecap:round; stroke-linejoin:round;">
<path d="M92914 78069
L92671 78069
L92646 78312
L92671 78288
L92719 78263
L92841 78263
L92890 78288
L92914 78312
L92939 78361
L92939 78483
L92914 78532
L92890 78556
L92841 78580
L92719 78580
L92671 78556
L92646 78532
" />
</g>
<g style="fill:#000000; fill-opacity:0.0; 
stroke:#000000; stroke-width:39.3701; stroke-opacity:1; 
stroke-linecap:round; stroke-linejoin:round;">
</g>
<g style="fill:#000000; fill-opacity:0.0; 
stroke:#000000; stroke-width:59.0551; stroke-opacity:1; 
stroke-linecap:round; stroke-linejoin:round;">
<path d="M112575 78069
L112477 78069
L112429 78093
L112404 78117
L112356 78190
L112331 78288
L112331 78483
L112356 78532
L112380 78556
L112429 78580
L112526 78580
L112575 78556
L112599 78532
L112624 78483
L112624 78361
L112599 78312
L112575 78288
L112526 78263
L112429 78263
L112380 78288
L112356 78312
L112331 78361
" />
</g>
<g style="fill:#000000; fill-opacity:0.0; 
stroke:#000000; stroke-width:39.3701; stroke-opacity:1; 
stroke-linecap:round; stroke-linejoin:round;">
</g>
<g style="fill:#000000; fill-opacity:0.0; 
stroke:#000000; stroke-width:59.0551; stroke-opacity:1; 
stroke-linecap:round; stroke-linejoin:round;">
<path d="M3937 23622
L4724 23622
" />
</g>
<g style="fill:#000000; fill-opacity:0.0; 
stroke:#000000; stroke-width:39.3701; stroke-opacity:1; 
stroke-linecap:round; stroke-linejoin:round;">
</g>
<g style="fill:#000000; fill-opacity:0.0; 
stroke:#000000; stroke-width:59.0551; stroke-opacity:1; 
stroke-linecap:round; stroke-linejoin:round;">
<path d="M3937 43307
L4724 43307
" />
</g>
<g style="fill:#000000; fill-opacity:0.0; 
stroke:#000000; stroke-width:39.3701; stroke-opacity:1; 
stroke-linecap:round; stroke-linejoin:round;">
</g>
<g style="fill:#000000; fill-opacity:0.0; 
stroke:#000000; stroke-width:59.0551; stroke-opacity:1; 
stroke-linecap:round; stroke-linejoin:round;">
<path d="M3937 62992
L4724 62992
" />
</g>
<g style="fill:#000000; fill-opacity:0.0; 
stroke:#000000; stroke-width:39.3701; stroke-opacity:1; 
stroke-linecap:round; stroke-linejoin:round;">
</g>
<g style="fill:#000000; fill-opacity:0.0; 
stroke:#000000; stroke-width:59.0551; stroke-opacity:1; 
stroke-linecap:round; stroke-linejoin:round;">
<path d="M4208 13864
L4452 13864
" />
<path d="M4160 14011
L4330 13499
L4501 14011
" />
</g>
<g style="fill:#000000; fill-opacity:0.0; 
stroke:#000000; stroke-width:39.3701; stroke-opacity:1; 
stroke-linecap:round; stroke-linejoin:round;">
</g>
<g style="fill:#000000; fill-opacity:0.0; 
stroke:#000000; stroke-width:59.0551; stroke-opacity:1; 
stroke-linecap:round; stroke-linejoin:round;">
<path d="M4367 33428
L4440 33452
L4464 33476
L4489 33525
L4489 33598
L4464 33647
L4440 33671
L4391 33696
L4196 33696
L4196 33184
L4367 33184
L4416 33208
L4440 33233
L4464 33281
L4464 33330
L4440 33379
L4416 33403
L4367 33428
L4196 33428
" />
</g>
<g style="fill:#000000; fill-opacity:0.0; 
stroke:#000000; stroke-width:39.3701; stroke-opacity:1; 
stroke-linecap:round; stroke-linejoin:round;">
</g>
<g style="fill:#000000; fill-opacity:0.0; 
stroke:#000000; stroke-width:59.0551; stroke-opacity:1; 
stroke-linecap:round; stroke-linejoin:round;">
<path d="M4489 53332
L4464 53356
L4391 53381
L4342 53381
L4269 53356
L4221 53308
L4196 53259
L4172 53161
L4172 53088
L4196 52991
L4221 52942
L4269 52893
L4342 52869
L4391 52869
L4464 52893
L4489 52918
" />
</g>
<g style="fill:#000000; fill-opacity:0.0; 
stroke:#000000; stroke-width:39.3701; stroke-opacity:1; 
stroke-linecap:round; stroke-linejoin:round;">
</g>
<g style="fill:#000000; fill-opacity:0.0; 
stroke:#000000; stroke-width:59.0551; stroke-opacity:1; 
stroke-linecap:round; stroke-linejoin:round;">
<path d="M4196 73066
L4196 72554
L4318 72554
L4391 72578
L4440 72627
L4464 72676
L4489 72773
L4489 72846
L4464 72944
L4440 72993
L4391 73041
L4318 73066
L4196 73066
" />
</g>
<g style="fill:#000000; fill-opacity:0.0; 
stroke:#000000; stroke-width:39.3701; stroke-opacity:1; 
stroke-linecap:round; stroke-linejoin:round;">
</g>
<g style="fill:#000000; fill-opacity:0.0; 
stroke:#000000; stroke-width:59.0551; stroke-opacity:1; 
stroke-linecap:round; stroke-linejoin:round;">
<path d="M112992 23622
L112205 23622
" />
</g>
<g style="fill:#000000; fill-opacity:0.0; 
stroke:#000000; stroke-width:39.3701; stroke-opacity:1; 
stroke-linecap:round; stroke-linejoin:round;">
</g>
<g style="fill:#000000; fill-opacity:0.0; 
stroke:#000000; stroke-width:59.0551; stroke-opacity:1; 
stroke-linecap:round; stroke-linejoin:round;">
<path d="M112992 43307
L112205 43307
" />
</g>
<g style="fill:#000000; fill-opacity:0.0; 
stroke:#000000; stroke-width:39.3701; stroke-opacity:1; 
stroke-linecap:round; stroke-linejoin:round;">
</g>
<g style="fill:#000000; fill-opacity:0.0; 
stroke:#000000; stroke-width:59.0551; stroke-opacity:1; 
stroke-linecap:round; stroke-linejoin:round;">
<path d="M112992 62992
L112205 62992
" />
</g>
<g style="fill:#000000; fill-opacity:0.0; 
stroke:#000000; stroke-width:39.3701; stroke-opacity:1; 
stroke-linecap:round; stroke-linejoin:round;">
</g>
<g style="fill:#000000; fill-opacity:0.0; 
stroke:#000000; stroke-width:59.0551; stroke-opacity:1; 
stroke-linecap:round; stroke-linejoin:round;">
<path d="M112477 13864
L112721 13864
" />
<path d="M112428 14011
L112599 13499
L112769 14011
" />
</g>
<g style="fill:#000000; fill-opacity:0.0; 
stroke:#000000; stroke-width:39.3701; stroke-opacity:1; 
stroke-linecap:round; stroke-linejoin:round;">
</g>
<g style="fill:#000000; fill-opacity:0.0; 
stroke:#000000; stroke-width:59.0551; stroke-opacity:1; 
stroke-linecap:round; stroke-linejoin:round;">
<path d="M112635 33428
L112708 33452
L112733 33476
L112757 33525
L112757 33598
L112733 33647
L112708 33671
L112660 33696
L112465 33696
L112465 33184
L112635 33184
L112684 33208
L112708 33233
L112733 33281
L112733 33330
L112708 33379
L112684 33403
L112635 33428
L112465 33428
" />
</g>
<g style="fill:#000000; fill-opacity:0.0; 
stroke:#000000; stroke-width:39.3701; stroke-opacity:1; 
stroke-linecap:round; stroke-linejoin:round;">
</g>
<g style="fill:#000000; fill-opacity:0.0; 
stroke:#000000; stroke-width:59.0551; stroke-opacity:1; 
stroke-linecap:round; stroke-linejoin:round;">
<path d="M112757 53332
L112733 53356
L112660 53381
L112611 53381
L112538 53356
L112489 53308
L112465 53259
L112440 53161
L112440 53088
L112465 52991
L112489 52942
L112538 52893
L112611 52869
L112660 52869
L112733 52893
L112757 52918
" />
</g>
<g style="fill:#000000; fill-opacity:0.0; 
stroke:#000000; stroke-width:39.3701; stroke-opacity:1; 
stroke-linecap:round; stroke-linejoin:round;">
</g>
<g style="fill:#000000; fill-opacity:0.0; 
stroke:#000000; stroke-width:59.0551; stroke-opacity:1; 
stroke-linecap:round; stroke-linejoin:round;">
<path d="M112465 73066
L112465 72554
L112587 72554
L112660 72578
L112708 72627
L112733 72676
L112757 72773
L112757 72846
L112733 72944
L112708 72993
L112660 73041
L112587 73066
L112465 73066
" />
</g>
<g style="fill:#000000; fill-opacity:0.0; 
stroke:#000000; stroke-width:39.3701; stroke-opacity:1; 
stroke-linecap:round; stroke-linejoin:round;">
</g>
<g style="fill:#000000; fill-opacity:0.0; 
stroke:#000000; stroke-width:59.0551; stroke-opacity:1; 
stroke-linecap:round; stroke-linejoin:round;">
<path d="M78911 76293
L78911 75703
L79051 75703
L79136 75731
L79192 75787
L79220 75843
L79248 75956
L79248 76040
L79220 76153
L79192 76209
L79136 76265
L79051 76293
L78911 76293
" />
<path d="M79754 76293
L79754 75984
L79726 75928
L79670 75899
L79557 75899
L79501 75928
" />
<path d="M79754 76265
L79698 76293
L79557 76293
L79501 76265
L79473 76209
L79473 76153
L79501 76096
L79557 76068
L79698 76068
L79754 76040
" />
<path d="M79951 75899
L80176 75899
" />
<path d="M80036 75703
L80036 76209
L80064 76265
L80120 76293
L80176 76293
" />
<path d="M80598 76265
L80542 76293
L80429 76293
L80373 76265
L80345 76209
L80345 75984
L80373 75928
L80429 75899
L80542 75899
L80598 75928
L80626 75984
L80626 76040
L80345 76096
" />
<path d="M80879 76237
L80907 76265
L80879 76293
L80851 76265
L80879 76237
L80879 76293
" />
<path d="M80879 75928
L80907 75956
L80879 75984
L80851 75956
L80879 75928
L80879 75984
" />
</g>
<g style="fill:#000000; fill-opacity:0.0; 
stroke:#000000; stroke-width:39.3701; stroke-opacity:1; 
stroke-linecap:round; stroke-linejoin:round;">
</g>
<g style="fill:#000000; fill-opacity:0.0; 
stroke:#000000; stroke-width:59.0551; stroke-opacity:1; 
stroke-linecap:round; stroke-linejoin:round;">
<path d="M69685 76577
L112205 76577
" />
</g>
<g style="fill:#000000; fill-opacity:0.0; 
stroke:#000000; stroke-width:39.3701; stroke-opacity:1; 
stroke-linecap:round; stroke-linejoin:round;">
</g>
<g style="fill:#000000; fill-opacity:0.0; 
stroke:#000000; stroke-width:59.0551; stroke-opacity:1; 
stroke-linecap:round; stroke-linejoin:round;">
<path d="M70249 77395
L70249 76805
" />
<path d="M70587 77395
L70334 77058
" />
<path d="M70587 76805
L70249 77142
" />
<path d="M70840 77395
L70840 77002
" />
<path d="M70840 76805
L70812 76833
L70840 76861
L70868 76833
L70840 76805
L70840 76861
" />
<path d="M71458 77339
L71430 77367
L71346 77395
L71290 77395
L71205 77367
L71149 77311
L71121 77255
L71093 77142
L71093 77058
L71121 76946
L71149 76889
L71205 76833
L71290 76805
L71346 76805
L71430 76833
L71458 76861
" />
<path d="M71965 77395
L71965 77086
L71937 77030
L71880 77002
L71768 77002
L71712 77030
" />
<path d="M71965 77367
L71908 77395
L71768 77395
L71712 77367
L71683 77311
L71683 77255
L71712 77199
L71768 77171
L71908 77171
L71965 77142
" />
<path d="M72499 77395
L72499 76805
" />
<path d="M72499 77367
L72443 77395
L72330 77395
L72274 77367
L72246 77339
L72218 77283
L72218 77114
L72246 77058
L72274 77030
L72330 77002
L72443 77002
L72499 77030
" />
<path d="M73230 77086
L73427 77086
" />
<path d="M73511 77395
L73230 77395
L73230 76805
L73511 76805
" />
<path d="M73764 77339
L73793 77367
L73764 77395
L73736 77367
L73764 77339
L73764 77395
" />
<path d="M74046 77395
L74046 76805
L74186 76805
L74271 76833
L74327 76889
L74355 76946
L74383 77058
L74383 77142
L74355 77255
L74327 77311
L74271 77367
L74186 77395
L74046 77395
" />
<path d="M74636 77339
L74664 77367
L74636 77395
L74608 77367
L74636 77339
L74636 77395
" />
<path d="M74889 77227
L75171 77227
" />
<path d="M74833 77395
L75030 76805
L75227 77395
" />
<path d="M75424 77339
L75452 77367
L75424 77395
L75395 77367
L75424 77339
L75424 77395
" />
<path d="M76605 77395
L76605 76805
" />
<path d="M76661 77171
L76830 77395
" />
<path d="M76830 77002
L76605 77227
" />
<path d="M77083 77395
L77083 77002
" />
<path d="M77083 76805
L77055 76833
L77083 76861
L77111 76833
L77083 76805
L77083 76861
" />
<path d="M77617 77367
L77561 77395
L77448 77395
L77392 77367
L77364 77339
L77336 77283
L77336 77114
L77364 77058
L77392 77030
L77448 77002
L77561 77002
L77617 77030
" />
<path d="M78123 77395
L78123 77086
L78095 77030
L78039 77002
L77926 77002
L77870 77030
" />
<path d="M78123 77367
L78067 77395
L77926 77395
L77870 77367
L77842 77311
L77842 77255
L77870 77199
L77926 77171
L78067 77171
L78123 77142
" />
<path d="M78658 77395
L78658 76805
" />
<path d="M78658 77367
L78601 77395
L78489 77395
L78433 77367
L78404 77339
L78376 77283
L78376 77114
L78404 77058
L78433 77030
L78489 77002
L78601 77002
L78658 77030
" />
<path d="M79557 77620
L79529 77592
L79473 77508
L79445 77452
L79417 77367
L79389 77227
L79389 77114
L79417 76974
L79445 76889
L79473 76833
L79529 76749
L79557 76721
" />
<path d="M79754 76861
L79782 76833
L79839 76805
L79979 76805
L80036 76833
L80064 76861
L80092 76917
L80092 76974
L80064 77058
L79726 77395
L80092 77395
" />
<path d="M80457 76805
L80514 76805
L80570 76833
L80598 76861
L80626 76917
L80654 77030
L80654 77171
L80626 77283
L80598 77339
L80570 77367
L80514 77395
L80457 77395
L80401 77367
L80373 77339
L80345 77283
L80317 77171
L80317 77030
L80345 76917
L80373 76861
L80401 76833
L80457 76805
" />
<path d="M81217 77395
L80879 77395
" />
<path d="M81048 77395
L81048 76805
L80992 76889
L80935 76946
L80879 76974
" />
<path d="M81413 76805
L81807 76805
L81554 77395
" />
<path d="M82032 77171
L82482 77171
" />
<path d="M82876 76805
L82932 76805
L82988 76833
L83016 76861
L83045 76917
L83073 77030
L83073 77171
L83045 77283
L83016 77339
L82988 77367
L82932 77395
L82876 77395
L82820 77367
L82791 77339
L82763 77283
L82735 77171
L82735 77030
L82763 76917
L82791 76861
L82820 76833
L82876 76805
" />
<path d="M83269 76805
L83663 76805
L83410 77395
" />
<path d="M83888 77171
L84338 77171
" />
<path d="M84929 77395
L84591 77395
" />
<path d="M84760 77395
L84760 76805
L84704 76889
L84647 76946
L84591 76974
" />
<path d="M85435 77002
L85435 77395
" />
<path d="M85294 76777
L85154 77199
L85519 77199
" />
<path d="M86194 77395
L86194 77002
" />
<path d="M86194 77114
L86222 77058
L86250 77030
L86307 77002
L86363 77002
" />
<path d="M86785 77367
L86728 77395
L86616 77395
L86560 77367
L86532 77311
L86532 77086
L86560 77030
L86616 77002
L86728 77002
L86785 77030
L86813 77086
L86813 77142
L86532 77199
" />
<path d="M87010 77002
L87150 77395
L87291 77002
" />
<path d="M87516 77395
L87516 77002
" />
<path d="M87516 76805
L87488 76833
L87516 76861
L87544 76833
L87516 76805
L87516 76861
" />
<path d="M87769 77367
L87825 77395
L87938 77395
L87994 77367
L88022 77311
L88022 77283
L87994 77227
L87938 77199
L87853 77199
L87797 77171
L87769 77114
L87769 77086
L87797 77030
L87853 77002
L87938 77002
L87994 77030
" />
<path d="M88275 77395
L88275 77002
" />
<path d="M88275 76805
L88247 76833
L88275 76861
L88303 76833
L88275 76805
L88275 76861
" />
<path d="M88641 77395
L88584 77367
L88556 77339
L88528 77283
L88528 77114
L88556 77058
L88584 77030
L88641 77002
L88725 77002
L88781 77030
L88809 77058
L88838 77114
L88838 77283
L88809 77339
L88781 77367
L88725 77395
L88641 77395
" />
<path d="M89091 77002
L89091 77395
" />
<path d="M89091 77058
L89119 77030
L89175 77002
L89259 77002
L89316 77030
L89344 77086
L89344 77395
" />
<path d="M90047 76861
L90075 76833
L90131 76805
L90272 76805
L90328 76833
L90356 76861
L90384 76917
L90384 76974
L90356 77058
L90019 77395
L90384 77395
" />
<path d="M90609 76861
L90637 76833
L90694 76805
L90834 76805
L90890 76833
L90919 76861
L90947 76917
L90947 76974
L90919 77058
L90581 77395
L90947 77395
" />
<path d="M91425 77367
L91368 77395
L91256 77395
L91200 77367
L91172 77311
L91172 77086
L91200 77030
L91256 77002
L91368 77002
L91425 77030
L91453 77086
L91453 77142
L91172 77199
" />
<path d="M91734 77395
L91847 77395
L91903 77367
L91931 77339
L91987 77255
L92015 77142
L92015 76917
L91987 76861
L91959 76833
L91903 76805
L91790 76805
L91734 76833
L91706 76861
L91678 76917
L91678 77058
L91706 77114
L91734 77142
L91790 77171
L91903 77171
L91959 77142
L91987 77114
L92015 77058
" />
<path d="M92550 76805
L92268 76805
L92240 77086
L92268 77058
L92325 77030
L92465 77030
L92521 77058
L92550 77086
L92578 77142
L92578 77283
L92550 77339
L92521 77367
L92465 77395
L92325 77395
L92268 77367
L92240 77339
" />
<path d="M93084 77395
L93084 77086
L93056 77030
L93000 77002
L92887 77002
L92831 77030
" />
<path d="M93084 77367
L93028 77395
L92887 77395
L92831 77367
L92803 77311
L92803 77255
L92831 77199
L92887 77171
L93028 77171
L93084 77142
" />
<path d="M93618 77395
L93618 77086
L93590 77030
L93534 77002
L93421 77002
L93365 77030
" />
<path d="M93618 77367
L93562 77395
L93421 77395
L93365 77367
L93337 77311
L93337 77255
L93365 77199
L93421 77171
L93562 77171
L93618 77142
" />
<path d="M93843 77620
L93871 77592
L93928 77508
L93956 77452
L93984 77367
L94012 77227
L94012 77114
L93984 76974
L93956 76889
L93928 76833
L93871 76749
L93843 76721
" />
<path d="M94293 77171
L94743 77171
" />
<path d="M95024 77395
L95024 77002
" />
<path d="M95024 77058
L95052 77030
L95109 77002
L95193 77002
L95249 77030
L95277 77086
L95277 77395
" />
<path d="M95277 77086
L95305 77030
L95362 77002
L95446 77002
L95502 77030
L95530 77086
L95530 77395
" />
<path d="M96065 77395
L96065 77086
L96037 77030
L95980 77002
L95868 77002
L95812 77030
" />
<path d="M96065 77367
L96009 77395
L95868 77395
L95812 77367
L95784 77311
L95784 77255
L95812 77199
L95868 77171
L96009 77171
L96065 77142
" />
<path d="M96318 77367
L96374 77395
L96487 77395
L96543 77367
L96571 77311
L96571 77283
L96543 77227
L96487 77199
L96402 77199
L96346 77171
L96318 77114
L96318 77086
L96346 77030
L96402 77002
L96487 77002
L96543 77030
" />
<path d="M96740 77002
L96965 77002
" />
<path d="M96824 76805
L96824 77311
L96852 77367
L96908 77395
L96965 77395
" />
<path d="M97386 77367
L97330 77395
L97218 77395
L97162 77367
L97133 77311
L97133 77086
L97162 77030
L97218 77002
L97330 77002
L97386 77030
L97415 77086
L97415 77142
L97133 77199
" />
<path d="M97668 77395
L97668 77002
" />
<path d="M97668 77114
L97696 77058
L97724 77030
L97780 77002
L97836 77002
" />
</g>
<g style="fill:#000000; fill-opacity:0.0; 
stroke:#000000; stroke-width:39.3701; stroke-opacity:1; 
stroke-linecap:round; stroke-linejoin:round;">
</g>
<g style="fill:#000000; fill-opacity:0.0; 
stroke:#000000; stroke-width:59.0551; stroke-opacity:1; 
stroke-linecap:round; stroke-linejoin:round;">
<path d="M69685 75396
L112205 75396
" />
</g>
<g style="fill:#000000; fill-opacity:0.0; 
stroke:#000000; stroke-width:39.3701; stroke-opacity:1; 
stroke-linecap:round; stroke-linejoin:round;">
</g>
<g style="fill:#000000; fill-opacity:0.0; 
stroke:#000000; stroke-width:118.11; stroke-opacity:1; 
stroke-linecap:round; stroke-linejoin:round;">
<path d="M104099 76293
L103902 76012
" />
<path d="M103761 76293
L103761 75703
L103986 75703
L104042 75731
L104070 75759
L104099 75815
L104099 75899
L104070 75956
L104042 75984
L103986 76012
L103761 76012
" />
<path d="M104577 76265
L104520 76293
L104408 76293
L104352 76265
L104323 76209
L104323 75984
L104352 75928
L104408 75899
L104520 75899
L104577 75928
L104605 75984
L104605 76040
L104323 76096
" />
<path d="M104802 75899
L104942 76293
L105083 75899
" />
<path d="M105308 76237
L105336 76265
L105308 76293
L105280 76265
L105308 76237
L105308 76293
" />
<path d="M105308 75928
L105336 75956
L105308 75984
L105280 75956
L105308 75928
L105308 75984
" />
</g>
<g style="fill:#000000; fill-opacity:0.0; 
stroke:#000000; stroke-width:39.3701; stroke-opacity:1; 
stroke-linecap:round; stroke-linejoin:round;">
</g>
<g style="fill:#000000; fill-opacity:0.0; 
stroke:#000000; stroke-width:59.0551; stroke-opacity:1; 
stroke-linecap:round; stroke-linejoin:round;">
<path d="M70221 76265
L70305 76293
L70446 76293
L70502 76265
L70530 76237
L70559 76181
L70559 76124
L70530 76068
L70502 76040
L70446 76012
L70334 75984
L70277 75956
L70249 75928
L70221 75871
L70221 75815
L70249 75759
L70277 75731
L70334 75703
L70474 75703
L70559 75731
" />
<path d="M70812 76293
L70812 75899
" />
<path d="M70812 75703
L70784 75731
L70812 75759
L70840 75731
L70812 75703
L70812 75759
" />
<path d="M71037 75899
L71346 75899
L71037 76293
L71346 76293
" />
<path d="M71796 76265
L71740 76293
L71627 76293
L71571 76265
L71543 76209
L71543 75984
L71571 75928
L71627 75899
L71740 75899
L71796 75928
L71824 75984
L71824 76040
L71543 76096
" />
<path d="M72077 76237
L72105 76265
L72077 76293
L72049 76265
L72077 76237
L72077 76293
" />
<path d="M72077 75928
L72105 75956
L72077 75984
L72049 75956
L72077 75928
L72077 75984
" />
<path d="M72780 76124
L73061 76124
" />
<path d="M72724 76293
L72921 75703
L73118 76293
" />
<path d="M73568 75899
L73568 76293
" />
<path d="M73427 75674
L73286 76096
L73652 76096
" />
</g>
<g style="fill:#000000; fill-opacity:0.0; 
stroke:#000000; stroke-width:39.3701; stroke-opacity:1; 
stroke-linecap:round; stroke-linejoin:round;">
</g>
<g style="fill:#000000; fill-opacity:0.0; 
stroke:#000000; stroke-width:59.0551; stroke-opacity:1; 
stroke-linecap:round; stroke-linejoin:round;">
<path d="M103714 77395
L103714 76805
" />
<path d="M104248 77395
L104248 76805
" />
<path d="M104248 77367
L104192 77395
L104079 77395
L104023 77367
L103995 77339
L103967 77283
L103967 77114
L103995 77058
L104023 77030
L104079 77002
L104192 77002
L104248 77030
" />
<path d="M104529 77339
L104557 77367
L104529 77395
L104501 77367
L104529 77339
L104529 77395
" />
<path d="M104529 77030
L104557 77058
L104529 77086
L104501 77058
L104529 77030
L104529 77086
" />
<path d="M105570 77395
L105232 77395
" />
<path d="M105401 77395
L105401 76805
L105345 76889
L105289 76946
L105232 76974
" />
<path d="M106245 76777
L105739 77536
" />
<path d="M106751 77395
L106413 77395
" />
<path d="M106582 77395
L106582 76805
L106526 76889
L106470 76946
L106413 76974
" />
</g>
<g style="fill:#000000; fill-opacity:0.0; 
stroke:#000000; stroke-width:39.3701; stroke-opacity:1; 
stroke-linecap:round; stroke-linejoin:round;">
</g>
<g style="fill:#000000; fill-opacity:0.0; 
stroke:#000000; stroke-width:59.0551; stroke-opacity:1; 
stroke-linecap:round; stroke-linejoin:round;">
<path d="M69685 73821
L112205 73821
" />
</g>
<g style="fill:#000000; fill-opacity:0.0; 
stroke:#000000; stroke-width:39.3701; stroke-opacity:1; 
stroke-linecap:round; stroke-linejoin:round;">
</g>
<g style="fill:#000000; fill-opacity:0.0; 
stroke:#000000; stroke-width:157.48; stroke-opacity:1; 
stroke-linecap:round; stroke-linejoin:round;">
<path d="M70360 74099
L70810 74099
" />
<path d="M70486 74886
L70585 74099
" />
<path d="M70974 74886
L71039 74361
" />
<path d="M71072 74099
L71030 74136
L71063 74174
L71105 74136
L71072 74099
L71063 74174
" />
<path d="M71302 74361
L71602 74361
" />
<path d="M71447 74099
L71363 74774
L71391 74849
L71461 74886
L71536 74886
" />
<path d="M71911 74886
L71841 74849
L71813 74774
L71897 74099
" />
<path d="M72516 74849
L72436 74886
L72286 74886
L72216 74849
L72187 74774
L72225 74474
L72272 74399
L72352 74361
L72501 74361
L72572 74399
L72600 74474
L72591 74549
L72206 74624
" />
<path d="M72895 74811
L72928 74849
L72886 74886
L72853 74849
L72895 74811
L72886 74886
" />
<path d="M72947 74399
L72980 74436
L72937 74474
L72905 74436
L72947 74399
L72937 74474
" />
</g>
<g style="fill:#000000; fill-opacity:0.0; 
stroke:#000000; stroke-width:39.3701; stroke-opacity:1; 
stroke-linecap:round; stroke-linejoin:round;">
</g>
<g style="fill:#000000; fill-opacity:0.0; 
stroke:#000000; stroke-width:59.0551; stroke-opacity:1; 
stroke-linecap:round; stroke-linejoin:round;">
<path d="M70446 73070
L70249 73070
" />
<path d="M70249 73380
L70249 72789
L70530 72789
" />
<path d="M70755 73380
L70755 72986
" />
<path d="M70755 72789
L70727 72817
L70755 72845
L70784 72817
L70755 72789
L70755 72845
" />
<path d="M71121 73380
L71065 73352
L71037 73295
L71037 72789
" />
<path d="M71571 73352
L71515 73380
L71402 73380
L71346 73352
L71318 73295
L71318 73070
L71346 73014
L71402 72986
L71515 72986
L71571 73014
L71599 73070
L71599 73127
L71318 73183
" />
<path d="M71852 73323
L71880 73352
L71852 73380
L71824 73352
L71852 73323
L71852 73380
" />
<path d="M71852 73014
L71880 73042
L71852 73070
L71824 73042
L71852 73014
L71852 73070
" />
<path d="M72836 72986
L72836 73464
L72808 73520
L72780 73548
L72724 73577
L72640 73577
L72583 73548
" />
<path d="M72836 73352
L72780 73380
L72668 73380
L72611 73352
L72583 73323
L72555 73267
L72555 73099
L72583 73042
L72611 73014
L72668 72986
L72780 72986
L72836 73014
" />
<path d="M73343 73352
L73286 73380
L73174 73380
L73118 73352
L73090 73295
L73090 73070
L73118 73014
L73174 72986
L73286 72986
L73343 73014
L73371 73070
L73371 73127
L73090 73183
" />
<path d="M73624 73380
L73624 72986
" />
<path d="M73624 72789
L73596 72817
L73624 72845
L73652 72817
L73624 72789
L73624 72845
" />
<path d="M74158 72986
L74158 73464
L74130 73520
L74102 73548
L74046 73577
L73961 73577
L73905 73548
" />
<path d="M74158 73352
L74102 73380
L73989 73380
L73933 73352
L73905 73323
L73877 73267
L73877 73099
L73905 73042
L73933 73014
L73989 72986
L74102 72986
L74158 73014
" />
<path d="M74664 73352
L74608 73380
L74496 73380
L74439 73352
L74411 73295
L74411 73070
L74439 73014
L74496 72986
L74608 72986
L74664 73014
L74692 73070
L74692 73127
L74411 73183
" />
<path d="M74946 73380
L74946 72986
" />
<path d="M74946 73099
L74974 73042
L75002 73014
L75058 72986
L75114 72986
" />
<path d="M75171 73436
L75620 73436
" />
<path d="M75761 73380
L75761 72986
" />
<path d="M75761 73042
L75789 73014
L75845 72986
L75930 72986
L75986 73014
L76014 73070
L76014 73380
" />
<path d="M76014 73070
L76042 73014
L76099 72986
L76183 72986
L76239 73014
L76267 73070
L76267 73380
" />
<path d="M76633 73380
L76577 73352
L76548 73323
L76520 73267
L76520 73099
L76548 73042
L76577 73014
L76633 72986
L76717 72986
L76773 73014
L76802 73042
L76830 73099
L76830 73267
L76802 73323
L76773 73352
L76717 73380
L76633 73380
" />
<path d="M77336 72986
L77336 73380
" />
<path d="M77083 72986
L77083 73295
L77111 73352
L77167 73380
L77251 73380
L77308 73352
L77336 73323
" />
<path d="M77617 72986
L77617 73380
" />
<path d="M77617 73042
L77645 73014
L77701 72986
L77786 72986
L77842 73014
L77870 73070
L77870 73380
" />
<path d="M78067 72986
L78292 72986
" />
<path d="M78151 72789
L78151 73295
L78180 73352
L78236 73380
L78292 73380
" />
<path d="M78461 73352
L78517 73380
L78629 73380
L78686 73352
L78714 73295
L78714 73267
L78686 73211
L78629 73183
L78545 73183
L78489 73155
L78461 73099
L78461 73070
L78489 73014
L78545 72986
L78629 72986
L78686 73014
" />
<path d="M78967 73323
L78995 73352
L78967 73380
L78939 73352
L78967 73323
L78967 73380
" />
<path d="M79248 73380
L79248 72789
" />
<path d="M79304 73155
L79473 73380
" />
<path d="M79473 72986
L79248 73211
" />
<path d="M79726 73380
L79726 72986
" />
<path d="M79726 72789
L79698 72817
L79726 72845
L79754 72817
L79726 72789
L79726 72845
" />
<path d="M80260 73352
L80204 73380
L80092 73380
L80036 73352
L80007 73323
L79979 73267
L79979 73099
L80007 73042
L80036 73014
L80092 72986
L80204 72986
L80260 73014
" />
<path d="M80767 73380
L80767 73070
L80739 73014
L80682 72986
L80570 72986
L80514 73014
" />
<path d="M80767 73352
L80710 73380
L80570 73380
L80514 73352
L80485 73295
L80485 73239
L80514 73183
L80570 73155
L80710 73155
L80767 73127
" />
<path d="M81301 73380
L81301 72789
" />
<path d="M81301 73352
L81245 73380
L81132 73380
L81076 73352
L81048 73323
L81020 73267
L81020 73099
L81048 73042
L81076 73014
L81132 72986
L81245 72986
L81301 73014
" />
<path d="M81442 73436
L81892 73436
" />
<path d="M82032 72986
L82032 73577
" />
<path d="M82032 73014
L82088 72986
L82201 72986
L82257 73014
L82285 73042
L82313 73099
L82313 73267
L82285 73323
L82257 73352
L82201 73380
L82088 73380
L82032 73352
" />
<path d="M82820 73352
L82763 73380
L82651 73380
L82595 73352
L82566 73323
L82538 73267
L82538 73099
L82566 73042
L82595 73014
L82651 72986
L82763 72986
L82820 73014
" />
<path d="M83073 73380
L83073 72789
" />
<path d="M83073 73014
L83129 72986
L83241 72986
L83298 73014
L83326 73042
L83354 73099
L83354 73267
L83326 73323
L83298 73352
L83241 73380
L83129 73380
L83073 73352
" />
</g>
<g style="fill:#000000; fill-opacity:0.0; 
stroke:#000000; stroke-width:39.3701; stroke-opacity:1; 
stroke-linecap:round; stroke-linejoin:round;">
</g>
<g style="fill:#000000; fill-opacity:0.0; 
stroke:#000000; stroke-width:59.0551; stroke-opacity:1; 
stroke-linecap:round; stroke-linejoin:round;">
<path d="M69685 71459
L112205 71459
" />
</g>
<g style="fill:#000000; fill-opacity:0.0; 
stroke:#000000; stroke-width:39.3701; stroke-opacity:1; 
stroke-linecap:round; stroke-linejoin:round;">
</g>
<g style="fill:#000000; fill-opacity:0.0; 
stroke:#000000; stroke-width:59.0551; stroke-opacity:1; 
stroke-linecap:round; stroke-linejoin:round;">
<path d="M70221 72289
L70305 72317
L70446 72317
L70502 72289
L70530 72260
L70559 72204
L70559 72148
L70530 72092
L70502 72064
L70446 72036
L70334 72007
L70277 71979
L70249 71951
L70221 71895
L70221 71839
L70249 71782
L70277 71754
L70334 71726
L70474 71726
L70559 71754
" />
<path d="M70812 72317
L70812 71726
" />
<path d="M71065 72317
L71065 72007
L71037 71951
L70980 71923
L70896 71923
L70840 71951
L70812 71979
" />
<path d="M71571 72289
L71515 72317
L71402 72317
L71346 72289
L71318 72232
L71318 72007
L71346 71951
L71402 71923
L71515 71923
L71571 71951
L71599 72007
L71599 72064
L71318 72120
" />
<path d="M72077 72289
L72021 72317
L71908 72317
L71852 72289
L71824 72232
L71824 72007
L71852 71951
L71908 71923
L72021 71923
L72077 71951
L72105 72007
L72105 72064
L71824 72120
" />
<path d="M72274 71923
L72499 71923
" />
<path d="M72358 71726
L72358 72232
L72386 72289
L72443 72317
L72499 72317
" />
<path d="M72696 72260
L72724 72289
L72696 72317
L72668 72289
L72696 72260
L72696 72317
" />
<path d="M72696 71951
L72724 71979
L72696 72007
L72668 71979
L72696 71951
L72696 72007
" />
</g>
<g style="fill:#000000; fill-opacity:0.0; 
stroke:#000000; stroke-width:39.3701; stroke-opacity:1; 
stroke-linecap:round; stroke-linejoin:round;">
</g>
<g style="fill:#000000; fill-opacity:0.0; 
stroke:#000000; stroke-width:59.0551; stroke-opacity:1; 
stroke-linecap:round; stroke-linejoin:round;">
<path d="M77559 75396
L77559 76577
" />
</g>
<g style="fill:#000000; fill-opacity:0.0; 
stroke:#000000; stroke-width:39.3701; stroke-opacity:1; 
stroke-linecap:round; stroke-linejoin:round;">
</g>
<g style="fill:#000000; fill-opacity:0.0; 
stroke:#000000; stroke-width:59.0551; stroke-opacity:1; 
stroke-linecap:round; stroke-linejoin:round;">
<path d="M102756 75396
L102756 77955
" />
</g>
<g style="fill:#BFBFBF; fill-opacity:0.0; 
stroke:#BFBFBF; stroke-width:59.0551; stroke-opacity:1; 
stroke-linecap:round; stroke-linejoin:round;">
</g>
<g style="fill:#000000; fill-opacity:0.0; 
stroke:#000000; stroke-width:59.0551; stroke-opacity:1; 
stroke-linecap:round; stroke-linejoin:round;">
</g>
<g style="fill:#000000; fill-opacity:0.0; 
stroke:#000000; stroke-width:118.11; stroke-opacity:1; 
stroke-linecap:round; stroke-linejoin:round;">
<path d="M32665 38023
L32665 37685
" />
<path d="M32665 37854
L33256 37854
L33172 37798
L33115 37741
L33087 37685
" />
<path d="M33256 38219
L33256 38585
L33031 38388
L33031 38473
L33003 38529
L32975 38557
L32919 38585
L32778 38585
L32722 38557
L32694 38529
L32665 38473
L32665 38304
L32694 38248
L32722 38219
" />
<path d="M33256 38782
L33256 39147
L33031 38951
L33031 39035
L33003 39091
L32975 39119
L32919 39147
L32778 39147
L32722 39119
L32694 39091
L32665 39035
L32665 38866
L32694 38810
L32722 38782
" />
<path d="M32722 39401
L32694 39429
L32665 39401
L32694 39372
L32722 39401
L32665 39401
" />
<path d="M33256 39794
L33256 39850
L33228 39907
L33200 39935
L33143 39963
L33031 39991
L32890 39991
L32778 39963
L32722 39935
L32694 39907
L32665 39850
L32665 39794
L32694 39738
L32722 39710
L32778 39682
L32890 39654
L33031 39654
L33143 39682
L33200 39710
L33228 39738
L33256 39794
" />
<path d="M33256 40357
L33256 40413
L33228 40469
L33200 40497
L33143 40525
L33031 40553
L32890 40553
L32778 40525
L32722 40497
L32694 40469
L32665 40413
L32665 40357
L32694 40300
L32722 40272
L32778 40244
L32890 40216
L33031 40216
L33143 40244
L33200 40272
L33228 40300
L33256 40357
" />
<path d="M33256 40919
L33256 40975
L33228 41032
L33200 41060
L33143 41088
L33031 41116
L32890 41116
L32778 41088
L32722 41060
L32694 41032
L32665 40975
L32665 40919
L32694 40863
L32722 40835
L32778 40807
L32890 40778
L33031 40778
L33143 40807
L33200 40835
L33228 40863
L33256 40919
" />
<path d="M32665 41819
L33059 41819
" />
<path d="M33003 41819
L33031 41847
L33059 41903
L33059 41988
L33031 42044
L32975 42072
L32665 42072
" />
<path d="M32975 42072
L33031 42100
L33059 42156
L33059 42241
L33031 42297
L32975 42325
L32665 42325
" />
<path d="M32665 42606
L33059 42606
" />
<path d="M33003 42606
L33031 42634
L33059 42691
L33059 42775
L33031 42831
L32975 42859
L32665 42859
" />
<path d="M32975 42859
L33031 42888
L33059 42944
L33059 43028
L33031 43084
L32975 43113
L32665 43113
" />
</g>
<g style="fill:#BFBFBF; fill-opacity:0.0; 
stroke:#BFBFBF; stroke-width:118.11; stroke-opacity:1; 
stroke-linecap:round; stroke-linejoin:round;">
<path d="M32401 14232
L32401 66594
" />
<path d="M24625 14232
L33464 14232
" />
<path d="M24625 66594
L33464 66594
" />
<path d="M32401 66594
L32170 66150
" />
<path d="M32401 66594
L32632 66150
" />
<path d="M32401 14232
L32170 14675
" />
<path d="M32401 14232
L32632 14675
" />
</g>
<g style="fill:#000000; fill-opacity:0.0; 
stroke:#000000; stroke-width:118.11; stroke-opacity:1; 
stroke-linecap:round; stroke-linejoin:round;">
<path d="M28130 42755
L28130 42643
L28102 42586
L28073 42558
L27989 42502
L27877 42474
L27652 42474
L27595 42502
L27567 42530
L27539 42586
L27539 42698
L27567 42755
L27595 42783
L27651 42811
L27792 42811
L27848 42783
L27876 42755
L27905 42699
L27905 42586
L27877 42530
L27848 42502
L27792 42474
" />
<path d="M27539 42277
L27539 41911
L27764 42108
L27764 42024
L27793 41967
L27821 41939
L27877 41911
L28018 41911
L28074 41939
L28102 41968
L28130 42024
L28130 42193
L28102 42249
L28074 42277
" />
<path d="M28074 41658
L28102 41630
L28130 41658
L28102 41686
L28074 41658
L28130 41658
" />
<path d="M27540 41264
L27540 41208
L27568 41152
L27596 41124
L27652 41096
L27765 41068
L27905 41068
L28018 41096
L28074 41124
L28102 41152
L28130 41208
L28130 41265
L28102 41321
L28074 41349
L28018 41377
L27905 41405
L27765 41405
L27652 41377
L27596 41349
L27568 41321
L27540 41264
" />
<path d="M27540 40533
L27540 40814
L27821 40843
L27793 40814
L27765 40758
L27765 40618
L27793 40561
L27821 40533
L27878 40505
L28018 40505
L28075 40533
L28103 40562
L28131 40618
L28131 40758
L28102 40815
L28074 40843
" />
<path d="M27540 40139
L27540 40083
L27569 40027
L27597 39999
L27653 39971
L27765 39943
L27906 39943
L28019 39971
L28075 39999
L28103 40027
L28131 40083
L28131 40140
L28103 40196
L28075 40224
L28018 40252
L27906 40280
L27765 40280
L27653 40252
L27597 40224
L27568 40196
L27540 40139
" />
<path d="M28131 39240
L27738 39240
" />
<path d="M27794 39240
L27766 39212
L27738 39155
L27738 39071
L27766 39015
L27822 38987
L28132 38987
" />
<path d="M27822 38987
L27766 38958
L27738 38902
L27738 38818
L27766 38762
L27822 38733
L28132 38734
" />
<path d="M28132 38452
L27738 38452
" />
<path d="M27794 38452
L27766 38424
L27738 38368
L27738 38283
L27766 38227
L27823 38199
L28132 38199
" />
<path d="M27823 38199
L27766 38171
L27738 38115
L27738 38030
L27767 37974
L27823 37946
L28132 37946
" />
</g>
<g style="fill:#BFBFBF; fill-opacity:0.0; 
stroke:#BFBFBF; stroke-width:118.11; stroke-opacity:1; 
stroke-linecap:round; stroke-linejoin:round;">
<path d="M27342 22047
L27322 58681
" />
<path d="M26259 22047
L28405 22048
" />
<path d="M26240 58681
L28385 58682
" />
<path d="M27322 58681
L27092 58238
" />
<path d="M27322 58681
L27553 58238
" />
<path d="M27342 22047
L27111 22491
" />
<path d="M27342 22047
L27573 22491
" />
</g>
<g style="fill:#BFBFBF; fill-opacity:0.0; 
stroke:#BFBFBF; stroke-width:78.7402; stroke-opacity:1; 
stroke-linecap:round; stroke-linejoin:round;">
<path d="M24606 58661
L57224 58661
" />
<path d="M24566 22066
L109921 22066
" />
<path d="M24547 58681
L12047 58681
" />
</g>
<g style="fill:#BFBF00; fill-opacity:0.0; 
stroke:#BFBF00; stroke-width:78.7402; stroke-opacity:1; 
stroke-linecap:round; stroke-linejoin:round;">
</g>
<g style="fill:#BFBF00; fill-opacity:0.0; 
stroke:#BFBF00; stroke-width:59.0551; stroke-opacity:1; 
stroke-linecap:round; stroke-linejoin:round;">
<path d="M12086 66574
L24625 66574
" />
</g>
<g style="fill:#BFBFBF; fill-opacity:0.0; 
stroke:#BFBFBF; stroke-width:59.0551; stroke-opacity:1; 
stroke-linecap:round; stroke-linejoin:round;">
</g>
<g style="fill:#000000; fill-opacity:0.0; 
stroke:#000000; stroke-width:59.0551; stroke-opacity:1; 
stroke-linecap:round; stroke-linejoin:round;">
</g>
<g style="fill:#000000; fill-opacity:0.0; 
stroke:#000000; stroke-width:118.11; stroke-opacity:1; 
stroke-linecap:round; stroke-linejoin:round;">
<path d="M5265 15104
L5264 14767
" />
<path d="M5264 14936
L5855 14934
L5770 14878
L5714 14822
L5686 14765
" />
<path d="M5857 15637
L5856 15355
L5575 15328
L5603 15356
L5632 15412
L5632 15553
L5604 15609
L5576 15638
L5520 15666
L5379 15666
L5323 15638
L5295 15610
L5266 15554
L5266 15414
L5294 15357
L5322 15329
" />
<path d="M5324 15920
L5296 15948
L5268 15920
L5296 15892
L5324 15920
L5268 15920
" />
<path d="M5860 16312
L5860 16368
L5832 16424
L5804 16452
L5748 16481
L5635 16509
L5495 16510
L5382 16482
L5326 16454
L5298 16426
L5269 16370
L5269 16314
L5297 16257
L5325 16229
L5381 16201
L5494 16172
L5634 16172
L5747 16199
L5803 16227
L5831 16255
L5860 16312
" />
<path d="M5861 16874
L5862 16930
L5834 16987
L5806 17015
L5750 17043
L5637 17072
L5497 17072
L5384 17044
L5328 17016
L5299 16988
L5271 16932
L5271 16876
L5299 16820
L5327 16791
L5383 16763
L5495 16735
L5636 16734
L5749 16762
L5805 16790
L5833 16818
L5861 16874
" />
<path d="M5863 17436
L5863 17493
L5836 17549
L5808 17577
L5751 17605
L5639 17634
L5498 17634
L5386 17607
L5329 17579
L5301 17551
L5273 17495
L5273 17438
L5301 17382
L5329 17354
L5385 17325
L5497 17297
L5638 17297
L5750 17324
L5807 17352
L5835 17380
L5863 17436
" />
<path d="M5276 18338
L5669 18337
" />
<path d="M5613 18337
L5641 18365
L5670 18421
L5670 18506
L5642 18562
L5586 18590
L5277 18591
" />
<path d="M5586 18590
L5642 18618
L5671 18674
L5671 18759
L5643 18815
L5587 18843
L5277 18844
" />
<path d="M5278 19126
L5672 19124
" />
<path d="M5616 19125
L5644 19153
L5672 19209
L5673 19293
L5645 19349
L5589 19378
L5279 19379
" />
<path d="M5589 19378
L5645 19406
L5673 19462
L5673 19546
L5646 19602
L5589 19631
L5280 19632
" />
</g>
<g style="fill:#BFBFBF; fill-opacity:0.0; 
stroke:#BFBFBF; stroke-width:118.11; stroke-opacity:1; 
stroke-linecap:round; stroke-linejoin:round;">
<path d="M6080 20163
L6061 14258
" />
<path d="M13937 20137
L5018 20167
" />
<path d="M13917 14232
L4998 14262
" />
<path d="M6061 14258
L6293 14701
" />
<path d="M6061 14258
L5831 14702
" />
<path d="M6080 20163
L6310 19719
" />
<path d="M6080 20163
L5848 19721
" />
</g>
<g style="fill:#000000; fill-opacity:0.0; 
stroke:#000000; stroke-width:118.11; stroke-opacity:1; 
stroke-linecap:round; stroke-linejoin:round;">
<path d="M12920 8778
L12583 8776
" />
<path d="M12752 8777
L12756 8186
L12699 8270
L12642 8326
L12586 8354
" />
<path d="M13459 8191
L13177 8189
L13147 8470
L13176 8442
L13232 8414
L13373 8415
L13429 8444
L13457 8472
L13485 8529
L13484 8669
L13455 8725
L13427 8753
L13370 8781
L13230 8780
L13174 8751
L13146 8723
" />
<path d="M13736 8727
L13764 8755
L13736 8783
L13708 8755
L13736 8727
L13736 8783
" />
<path d="M14134 8195
L14190 8196
L14246 8224
L14274 8253
L14302 8309
L14329 8422
L14328 8562
L14299 8675
L14271 8731
L14242 8759
L14186 8786
L14130 8786
L14074 8757
L14046 8729
L14018 8673
L13990 8560
L13991 8419
L14020 8307
L14049 8251
L14077 8223
L14134 8195
" />
<path d="M14696 8199
L14752 8200
L14808 8228
L14836 8256
L14864 8313
L14891 8425
L14890 8566
L14861 8678
L14833 8734
L14805 8762
L14748 8790
L14692 8790
L14636 8761
L14608 8733
L14580 8676
L14553 8564
L14554 8423
L14583 8311
L14611 8255
L14640 8227
L14696 8199
" />
<path d="M15258 8203
L15315 8203
L15371 8232
L15399 8260
L15426 8316
L15454 8429
L15453 8570
L15424 8682
L15395 8738
L15367 8766
L15311 8794
L15254 8793
L15198 8765
L15170 8737
L15143 8680
L15115 8568
L15116 8427
L15145 8315
L15174 8259
L15202 8231
L15258 8203
" />
<path d="M16154 8799
L16157 8406
" />
<path d="M16157 8462
L16185 8434
L16241 8406
L16326 8407
L16382 8435
L16409 8492
L16407 8801
" />
<path d="M16409 8492
L16438 8436
L16494 8408
L16579 8409
L16635 8437
L16663 8493
L16660 8803
" />
<path d="M16942 8805
L16944 8411
" />
<path d="M16944 8467
L16972 8439
L17029 8412
L17113 8412
L17169 8441
L17197 8497
L17195 8806
" />
<path d="M17197 8497
L17225 8441
L17282 8413
L17366 8414
L17422 8442
L17450 8499
L17448 8808
" />
</g>
<g style="fill:#BFBFBF; fill-opacity:0.0; 
stroke:#BFBFBF; stroke-width:118.11; stroke-opacity:1; 
stroke-linecap:round; stroke-linejoin:round;">
<path d="M17980 9076
L12075 9037
" />
<path d="M17933 16259
L17988 8013
" />
<path d="M12027 16220
L12082 7974
" />
<path d="M12075 9037
L12520 8809
" />
<path d="M12075 9037
L12517 9270
" />
<path d="M17980 9076
L17539 8842
" />
<path d="M17980 9076
L17535 9304
" />
</g>
<g style="fill:#000000; fill-opacity:0.0; 
stroke:#000000; stroke-width:118.11; stroke-opacity:1; 
stroke-linecap:round; stroke-linejoin:round;">
<path d="M11116 10739
L10835 10739
L10807 11020
L10835 10992
L10891 10964
L11032 10964
L11088 10992
L11116 11020
L11144 11077
L11144 11217
L11116 11273
L11088 11302
L11032 11330
L10891 11330
L10835 11302
L10807 11273
" />
<path d="M11397 11273
L11425 11302
L11397 11330
L11369 11302
L11397 11273
L11397 11330
" />
<path d="M11791 10739
L11847 10739
L11903 10767
L11931 10795
L11960 10852
L11988 10964
L11988 11105
L11960 11217
L11931 11273
L11903 11302
L11847 11330
L11791 11330
L11735 11302
L11706 11273
L11678 11217
L11650 11105
L11650 10964
L11678 10852
L11706 10795
L11735 10767
L11791 10739
" />
<path d="M12353 10739
L12410 10739
L12466 10767
L12494 10795
L12522 10852
L12550 10964
L12550 11105
L12522 11217
L12494 11273
L12466 11302
L12410 11330
L12353 11330
L12297 11302
L12269 11273
L12241 11217
L12213 11105
L12213 10964
L12241 10852
L12269 10795
L12297 10767
L12353 10739
" />
<path d="M12916 10739
L12972 10739
L13028 10767
L13056 10795
L13084 10852
L13113 10964
L13113 11105
L13084 11217
L13056 11273
L13028 11302
L12972 11330
L12916 11330
L12859 11302
L12831 11273
L12803 11217
L12775 11105
L12775 10964
L12803 10852
L12831 10795
L12859 10767
L12916 10739
" />
<path d="M13816 11330
L13816 10936
" />
<path d="M13816 10992
L13844 10964
L13900 10936
L13984 10936
L14041 10964
L14069 11020
L14069 11330
" />
<path d="M14069 11020
L14097 10964
L14153 10936
L14237 10936
L14294 10964
L14322 11020
L14322 11330
" />
<path d="M14603 11330
L14603 10936
" />
<path d="M14603 10992
L14631 10964
L14687 10936
L14772 10936
L14828 10964
L14856 11020
L14856 11330
" />
<path d="M14856 11020
L14884 10964
L14940 10936
L15025 10936
L15081 10964
L15109 11020
L15109 11330
" />
</g>
<g style="fill:#BFBFBF; fill-opacity:0.0; 
stroke:#BFBFBF; stroke-width:118.11; stroke-opacity:1; 
stroke-linecap:round; stroke-linejoin:round;">
<path d="M13956 11594
L11988 11594
" />
<path d="M13956 16200
L13956 10531
" />
<path d="M11988 16200
L11988 10531
" />
<path d="M11988 11594
L12431 11363
" />
<path d="M11988 11594
L12431 11825
" />
<path d="M13956 11594
L13513 11363
" />
<path d="M13956 11594
L13513 11825
" />
</g>
<g style="fill:#000000; fill-opacity:0.0; 
stroke:#000000; stroke-width:118.11; stroke-opacity:1; 
stroke-linecap:round; stroke-linejoin:round;">
<path d="M7826 17072
L7826 17353
L8107 17381
L8079 17353
L8051 17297
L8051 17156
L8079 17100
L8107 17072
L8163 17044
L8304 17044
L8360 17072
L8388 17100
L8416 17156
L8416 17297
L8388 17353
L8360 17381
" />
<path d="M8360 16791
L8388 16763
L8416 16791
L8388 16819
L8360 16791
L8416 16791
" />
<path d="M7826 16397
L7826 16341
L7854 16285
L7882 16257
L7938 16228
L8051 16200
L8191 16200
L8304 16228
L8360 16257
L8388 16285
L8416 16341
L8416 16397
L8388 16453
L8360 16482
L8304 16510
L8191 16538
L8051 16538
L7938 16510
L7882 16482
L7854 16453
L7826 16397
" />
<path d="M7826 15835
L7826 15778
L7854 15722
L7882 15694
L7938 15666
L8051 15638
L8191 15638
L8304 15666
L8360 15694
L8388 15722
L8416 15778
L8416 15835
L8388 15891
L8360 15919
L8304 15947
L8191 15975
L8051 15975
L7938 15947
L7882 15919
L7854 15891
L7826 15835
" />
<path d="M7826 15272
L7826 15216
L7854 15160
L7882 15132
L7938 15104
L8051 15075
L8191 15075
L8304 15104
L8360 15132
L8388 15160
L8416 15216
L8416 15272
L8388 15329
L8360 15357
L8304 15385
L8191 15413
L8051 15413
L7938 15385
L7882 15357
L7854 15329
L7826 15272
" />
<path d="M8416 14372
L8023 14372
" />
<path d="M8079 14372
L8051 14344
L8023 14288
L8023 14204
L8051 14147
L8107 14119
L8416 14119
" />
<path d="M8107 14119
L8051 14091
L8023 14035
L8023 13951
L8051 13894
L8107 13866
L8416 13866
" />
<path d="M8416 13585
L8023 13585
" />
<path d="M8079 13585
L8051 13557
L8023 13501
L8023 13416
L8051 13360
L8107 13332
L8416 13332
" />
<path d="M8107 13332
L8051 13304
L8023 13248
L8023 13163
L8051 13107
L8107 13079
L8416 13079
" />
</g>
<g style="fill:#BFBFBF; fill-opacity:0.0; 
stroke:#BFBFBF; stroke-width:118.11; stroke-opacity:1; 
stroke-linecap:round; stroke-linejoin:round;">
<path d="M8681 16200
L8681 14232
" />
<path d="M13956 16200
L7618 16200
" />
<path d="M13956 14232
L7618 14232
" />
<path d="M8681 14232
L8911 14675
" />
<path d="M8681 14232
L8450 14675
" />
<path d="M8681 16200
L8911 15757
" />
<path d="M8681 16200
L8450 15757
" />
</g>
<g style="fill:#000000; fill-opacity:0.0; 
stroke:#000000; stroke-width:118.11; stroke-opacity:1; 
stroke-linecap:round; stroke-linejoin:round;">
<path d="M20123 11447
L19786 11448
" />
<path d="M19954 11447
L19952 10857
L19896 10942
L19840 10998
L19784 11026
" />
<path d="M20346 10912
L20374 10883
L20430 10855
L20570 10854
L20627 10882
L20655 10910
L20683 10966
L20684 11023
L20656 11107
L20320 11446
L20685 11444
" />
<path d="M20938 11387
L20967 11415
L20938 11443
L20910 11415
L20938 11387
L20938 11443
" />
<path d="M21330 10851
L21386 10851
L21442 10879
L21471 10907
L21499 10963
L21528 11075
L21528 11216
L21500 11329
L21473 11385
L21445 11413
L21388 11441
L21332 11442
L21276 11414
L21248 11386
L21219 11330
L21191 11217
L21190 11077
L21218 10964
L21246 10908
L21274 10880
L21330 10851
" />
<path d="M21892 10849
L21948 10849
L22005 10876
L22033 10904
L22061 10961
L22090 11073
L22091 11214
L22063 11326
L22035 11383
L22007 11411
L21951 11439
L21895 11439
L21838 11411
L21810 11383
L21782 11327
L21753 11215
L21752 11074
L21780 10962
L21808 10905
L21836 10877
L21892 10849
" />
<path d="M22455 10846
L22511 10846
L22567 10874
L22595 10902
L22624 10958
L22652 11071
L22653 11211
L22625 11324
L22597 11380
L22569 11408
L22513 11437
L22457 11437
L22401 11409
L22372 11381
L22344 11325
L22316 11213
L22315 11072
L22343 10959
L22370 10903
L22398 10875
L22455 10846
" />
<path d="M23357 11433
L23355 11040
" />
<path d="M23356 11096
L23384 11068
L23440 11039
L23524 11039
L23580 11067
L23609 11123
L23610 11432
" />
<path d="M23609 11123
L23637 11067
L23693 11038
L23777 11038
L23833 11066
L23862 11122
L23863 11431
" />
<path d="M24144 11430
L24143 11036
" />
<path d="M24143 11093
L24171 11064
L24227 11036
L24311 11036
L24368 11063
L24396 11120
L24397 11429
" />
<path d="M24396 11120
L24424 11063
L24480 11035
L24564 11035
L24621 11062
L24649 11119
L24651 11428
" />
</g>
<g style="fill:#BFBFBF; fill-opacity:0.0; 
stroke:#BFBFBF; stroke-width:118.11; stroke-opacity:1; 
stroke-linecap:round; stroke-linejoin:round;">
<path d="M19871 11712
L24595 11692
" />
<path d="M19881 14212
L19867 10649
" />
<path d="M24606 14192
L24591 10629
" />
<path d="M24595 11692
L24153 11925
" />
<path d="M24595 11692
L24151 11463
" />
<path d="M19871 11712
L20315 11941
" />
<path d="M19871 11712
L20314 11479
" />
</g>
<g style="fill:#000000; fill-opacity:0.0; 
stroke:#000000; stroke-width:118.11; stroke-opacity:1; 
stroke-linecap:round; stroke-linejoin:round;">
<path d="M9365 20582
L9337 20554
L9309 20498
L9310 20357
L9338 20301
L9366 20273
L9423 20245
L9479 20246
L9563 20274
L9899 20613
L9901 20248
" />
<path d="M9312 19879
L9312 19823
L9341 19767
L9369 19739
L9425 19711
L9538 19683
L9679 19684
L9791 19713
L9847 19741
L9875 19769
L9903 19826
L9903 19882
L9874 19938
L9846 19966
L9790 19994
L9677 20022
L9536 20021
L9424 19992
L9368 19964
L9340 19935
L9312 19879
" />
<path d="M9849 19432
L9877 19404
L9905 19432
L9877 19460
L9849 19432
L9905 19432
" />
<path d="M9316 19035
L9317 18979
L9345 18923
L9373 18895
L9430 18867
L9542 18840
L9683 18840
L9795 18869
L9851 18898
L9879 18926
L9907 18982
L9907 19038
L9878 19095
L9850 19122
L9794 19150
L9681 19178
L9541 19177
L9428 19148
L9372 19120
L9344 19092
L9316 19035
" />
<path d="M9319 18473
L9319 18417
L9348 18361
L9376 18333
L9432 18305
L9545 18277
L9686 18278
L9798 18307
L9854 18335
L9882 18363
L9910 18420
L9910 18476
L9881 18532
L9853 18560
L9797 18588
L9684 18615
L9543 18615
L9431 18586
L9375 18558
L9347 18529
L9319 18473
" />
<path d="M9322 17911
L9322 17854
L9351 17798
L9379 17770
L9435 17742
L9548 17715
L9688 17716
L9801 17744
L9857 17773
L9885 17801
L9913 17857
L9912 17914
L9884 17970
L9856 17998
L9799 18025
L9687 18053
L9546 18052
L9434 18024
L9378 17995
L9350 17967
L9322 17911
" />
<path d="M9917 17014
L9523 17012
" />
<path d="M9579 17012
L9551 16984
L9524 16927
L9524 16843
L9552 16787
L9609 16759
L9918 16761
" />
<path d="M9609 16759
L9553 16731
L9525 16674
L9525 16590
L9554 16534
L9610 16506
L9919 16508
" />
<path d="M9921 16226
L9527 16224
" />
<path d="M9583 16225
L9555 16196
L9528 16140
L9528 16056
L9556 15999
L9613 15972
L9922 15973
" />
<path d="M9613 15972
L9557 15943
L9529 15887
L9529 15803
L9558 15746
L9614 15719
L9923 15720
" />
</g>
<g style="fill:#BFBFBF; fill-opacity:0.0; 
stroke:#BFBFBF; stroke-width:118.11; stroke-opacity:1; 
stroke-linecap:round; stroke-linejoin:round;">
<path d="M10195 14203
L10156 22077
" />
<path d="M12047 14212
L9132 14198
" />
<path d="M12007 22086
L9093 22072
" />
<path d="M10156 22077
L9927 21632
" />
<path d="M10156 22077
L10389 21635
" />
<path d="M10195 14203
L9962 14645
" />
<path d="M10195 14203
L10424 14647
" />
</g>
<g style="fill:#000000; fill-opacity:0.0; 
stroke:#000000; stroke-width:118.11; stroke-opacity:1; 
stroke-linecap:round; stroke-linejoin:round;">
<path d="M13542 12472
L13570 12444
L13626 12416
L13767 12417
L13823 12445
L13851 12473
L13879 12529
L13879 12586
L13850 12670
L13512 13007
L13878 13007
" />
<path d="M14245 12418
L14301 12418
L14357 12446
L14385 12474
L14413 12531
L14441 12643
L14441 12784
L14412 12896
L14384 12952
L14356 12981
L14299 13009
L14243 13008
L14187 12980
L14159 12952
L14131 12896
L14103 12783
L14104 12642
L14132 12530
L14160 12474
L14188 12446
L14245 12418
" />
<path d="M14693 12953
L14721 12981
L14693 13009
L14665 12981
L14693 12953
L14693 13009
" />
<path d="M15088 12420
L15145 12420
L15201 12448
L15229 12477
L15257 12533
L15285 12645
L15284 12786
L15256 12898
L15228 12955
L15199 12983
L15143 13011
L15087 13010
L15031 12982
L15003 12954
L14975 12898
L14947 12785
L14947 12645
L14976 12532
L15004 12476
L15032 12448
L15088 12420
" />
<path d="M15651 12421
L15707 12421
L15763 12450
L15791 12478
L15819 12534
L15847 12647
L15847 12787
L15818 12900
L15790 12956
L15762 12984
L15706 13012
L15649 13012
L15593 12984
L15565 12955
L15537 12899
L15509 12787
L15510 12646
L15538 12534
L15566 12477
L15594 12449
L15651 12421
" />
<path d="M16213 12423
L16269 12423
L16326 12451
L16354 12479
L16382 12536
L16409 12648
L16409 12789
L16381 12901
L16352 12957
L16324 12985
L16268 13013
L16212 13013
L16156 12985
L16127 12957
L16099 12901
L16072 12788
L16072 12647
L16100 12535
L16129 12479
L16157 12451
L16213 12423
" />
<path d="M17112 13016
L17113 12622
" />
<path d="M17112 12678
L17141 12650
L17197 12622
L17281 12622
L17337 12651
L17365 12707
L17365 13016
" />
<path d="M17365 12707
L17394 12651
L17450 12623
L17534 12623
L17591 12651
L17619 12707
L17618 13017
" />
<path d="M17899 13018
L17900 12624
" />
<path d="M17900 12680
L17928 12652
L17984 12624
L18069 12624
L18125 12652
L18153 12709
L18152 13018
" />
<path d="M18153 12709
L18181 12653
L18237 12625
L18322 12625
L18378 12653
L18406 12709
L18405 13019
" />
</g>
<g style="fill:#BFBFBF; fill-opacity:0.0; 
stroke:#BFBFBF; stroke-width:118.11; stroke-opacity:1; 
stroke-linecap:round; stroke-linejoin:round;">
<path d="M12049 13267
L19923 13287
" />
<path d="M12047 14192
L12052 12204
" />
<path d="M19921 14212
L19926 12224
" />
<path d="M19923 13287
L19479 13517
" />
<path d="M19923 13287
L19480 13055
" />
<path d="M12049 13267
L12492 13499
" />
<path d="M12049 13267
L12493 13037
" />
</g>
<g style="fill:#BFBFBF; fill-opacity:0.0; 
stroke:#BFBFBF; stroke-width:78.7402; stroke-opacity:1; 
stroke-linecap:round; stroke-linejoin:round;">
<path d="M19842 22086
L24566 22086
" />
<path d="M19881 65393
L19881 22125
" />
<path d="M19881 65393
L19881 73228
" />
<path d="M19881 22086
L12007 22086
" />
<path d="M19881 14212
L19881 22086
" />
<path d="M12007 14212
L19881 14212
" />
</g>
<g style="fill:#BFBF00; fill-opacity:0.0; 
stroke:#BFBF00; stroke-width:78.7402; stroke-opacity:1; 
stroke-linecap:round; stroke-linejoin:round;">
</g>
<g style="fill:#BFBF00; fill-opacity:0.0; 
stroke:#BFBF00; stroke-width:59.0551; stroke-opacity:1; 
stroke-linecap:round; stroke-linejoin:round;">
<path d="M12047 66574
L12047 14173
" />
<path d="M24606 14212
L24606 66574
" />
<path d="M12007 14212
L24606 14212
" />
</g> 
</svg>
